<svg id="visual" viewBox="0 0 900 600" width="900" height="600" xmlns="http://www.w3.org/2000/svg" xmlns:xlink="http://www.w3.org/1999/xlink" version="1.1"><rect x="0" y="0" width="900" height="600" fill="#c0e1f2"></rect><path d="M0 426L21.5 439.8C43 453.7 86 481.3 128.8 481.2C171.7 481 214.3 453 257.2 438.3C300 423.7 343 422.3 385.8 417C428.7 411.7 471.3 402.3 514.2 414.7C557 427 600 461 642.8 468C685.7 475 728.3 455 771.2 458.2C814 461.3 857 487.7 878.5 500.8L900 514L900 601L878.5 601C857 601 814 601 771.2 601C728.3 601 685.7 601 642.8 601C600 601 557 601 514.2 601C471.3 601 428.7 601 385.8 601C343 601 300 601 257.2 601C214.3 601 171.7 601 128.8 601C86 601 43 601 21.5 601L0 601Z" fill="#3982ef" stroke-linecap="round" stroke-linejoin="miter"></path></svg>